<?xml version="1.0" encoding="iso-8859-1"?>
<!-- Generator: Adobe Illustrator 19.0.0, SVG Export Plug-In . SVG Version: 6.00 Build 0)  -->
<svg version="1.1" id="Capa_1" xmlns="http://www.w3.org/2000/svg" xmlns:xlink="http://www.w3.org/1999/xlink" x="0px" y="0px"
	 viewBox="0 0 58 58" style="enable-background:new 0 0 58 58;" xml:space="preserve">
<g id="XMLID_8_">
	<path id="XMLID_128_" style="fill:#CCB375;" d="M54.783,50H3.217C1.439,50,0,48.56,0,46.783V11.217C0,9.44,1.439,8,3.217,8h51.566
		C56.56,8,58,9.44,58,11.217v35.566C58,48.56,56.56,50,54.783,50"/>
	<path id="XMLID_127_" style="fill:#7A693C;" d="M15,36H6c-0.553,0-1,0.448-1,1s0.447,1,1,1h9c0.553,0,1-0.448,1-1S15.553,36,15,36"
		/>
	<path id="XMLID_126_" style="fill:#7A693C;" d="M29,37c0-0.552-0.447-1-1-1h-9c-0.553,0-1,0.448-1,1s0.447,1,1,1h9
		C28.553,38,29,37.552,29,37"/>
	<path id="XMLID_125_" style="fill:#7A693C;" d="M7,41H6c-0.553,0-1,0.448-1,1s0.447,1,1,1h1c0.553,0,1-0.448,1-1S7.553,41,7,41"/>
	<path id="XMLID_124_" style="fill:#7A693C;" d="M13,41h-2c-0.553,0-1,0.448-1,1s0.447,1,1,1h2c0.553,0,1-0.448,1-1S13.553,41,13,41
		"/>
	<path id="XMLID_123_" style="fill:#7A693C;" d="M18,41h-1c-0.553,0-1,0.448-1,1s0.447,1,1,1h1c0.553,0,1-0.448,1-1S18.553,41,18,41
		"/>
	<path id="XMLID_122_" style="fill:#7A693C;" d="M24,41h-2c-0.553,0-1,0.448-1,1s0.447,1,1,1h2c0.553,0,1-0.448,1-1S24.553,41,24,41
		"/>
	<path id="XMLID_121_" style="fill:#7A693C;" d="M27.29,41.29C27.109,41.48,27,41.74,27,42c0,0.26,0.109,0.52,0.29,0.71
		C27.479,42.89,27.74,43,28,43s0.519-0.11,0.71-0.29C28.89,42.52,29,42.26,29,42c0-0.26-0.11-0.52-0.29-0.71
		C28.33,40.92,27.648,40.92,27.29,41.29"/>
	<path id="XMLID_120_" style="fill:#E74C3D;" d="M46,39c0,3.314-2.686,6-6,6s-6-2.686-6-6s2.686-6,6-6S46,35.686,46,39"/>
	<path id="XMLID_119_" style="fill:#F0C41B;" d="M53,39c0,3.314-2.686,6-6,6s-6-2.686-6-6s2.686-6,6-6S53,35.686,53,39"/>
	<path id="XMLID_118_" style="fill:#F0C41B;" d="M20.745,28H7.255C6.563,28,6,27.438,6,26.745v-9.49C6,16.562,6.563,16,7.255,16
		h13.49C21.438,16,22,16.562,22,17.255v9.49C22,27.438,21.438,28,20.745,28"/>
	<path id="XMLID_115_" style="fill:#F3D55C;" d="M20.745,29H7.255C6.012,29,5,27.988,5,26.745v-9.49C5,16.012,6.012,15,7.255,15
		h13.49C21.988,15,23,16.012,23,17.255v9.49C23,27.988,21.988,29,20.745,29 M7.255,17C7.113,17,7,17.114,7,17.255v9.49
		C7,26.886,7.113,27,7.255,27h13.49C20.886,27,21,26.886,21,26.745v-9.49C21,17.114,20.886,17,20.745,17H7.255z"/>
	<path id="XMLID_114_" style="fill:#F0C41B;" d="M22,17.255C22,16.562,21.438,16,20.745,16H16h-2.745C12.561,16,12,16.562,12,17.255
		V20v6.745C12,27.438,12.561,28,13.255,28h1.49C15.438,28,16,27.438,16,26.745v-5.49C16,20.562,16.562,20,17.255,20h3.49
		C21.438,20,22,19.438,22,18.745V17.255z"/>
	<path id="XMLID_111_" style="fill:#F3D55C;" d="M14.745,29h-1.49C12.012,29,11,27.988,11,26.745v-9.49
		C11,16.012,12.012,15,13.255,15h7.49C21.988,15,23,16.012,23,17.255v1.49C23,19.988,21.988,21,20.745,21h-3.49
		C17.113,21,17,21.114,17,21.255v5.49C17,27.988,15.988,29,14.745,29 M13.255,17C13.113,17,13,17.114,13,17.255v9.49
		C13,26.886,13.113,27,13.255,27h1.49C14.886,27,15,26.886,15,26.745v-5.49C15,20.012,16.012,19,17.255,19h3.49
		C20.886,19,21,18.886,21,18.745v-1.49C21,17.114,20.886,17,20.745,17H13.255z"/>
	<line id="XMLID_110_" style="fill:#F0C41B;" x1="16" y1="24" x2="22" y2="24"/>
	<path id="XMLID_109_" style="fill:#F3D55C;" d="M22,25h-6c-0.553,0-1-0.448-1-1s0.447-1,1-1h6c0.553,0,1,0.448,1,1S22.553,25,22,25
		"/>
	<line id="XMLID_108_" style="fill:#F0C41B;" x1="12" y1="20" x2="6" y2="20"/>
	<path id="XMLID_107_" style="fill:#F3D55C;" d="M12,21H6c-0.553,0-1-0.448-1-1s0.447-1,1-1h6c0.553,0,1,0.448,1,1S12.553,21,12,21"
		/>
	<line id="XMLID_106_" style="fill:#F0C41B;" x1="12" y1="24" x2="6" y2="24"/>
	<path id="XMLID_105_" style="fill:#F3D55C;" d="M12,25H6c-0.553,0-1-0.448-1-1s0.447-1,1-1h6c0.553,0,1,0.448,1,1S12.553,25,12,25"
		/>
</g>
<g>
</g>
<g>
</g>
<g>
</g>
<g>
</g>
<g>
</g>
<g>
</g>
<g>
</g>
<g>
</g>
<g>
</g>
<g>
</g>
<g>
</g>
<g>
</g>
<g>
</g>
<g>
</g>
<g>
</g>
</svg>
